<svg version="1.1" id="Layer_1" xmlns="http://www.w3.org/2000/svg" xmlns:xlink="http://www.w3.org/1999/xlink" x="0px" y="0px"
	 width="100%" viewBox="0 0 1024 1024" enable-background="new 0 0 1024 1024" xml:space="preserve">
<path fill="#000000" opacity="1.000000" stroke="none" 
	d="
M868.847290,707.713623 
	C855.161621,725.834229 840.092163,741.895691 822.062073,755.448792 
	C795.699829,775.264771 766.407288,788.781799 735.524902,799.457642 
	C711.827759,807.649597 687.647095,813.794128 662.828918,817.488464 
	C646.745667,819.882629 630.594604,821.658020 614.469116,823.663147 
	C600.132874,825.445801 585.721985,826.129272 571.378052,827.609314 
	C556.145996,829.181091 540.673584,828.456787 525.305176,828.665710 
	C505.703064,828.932312 486.162750,827.488892 466.596710,826.635864 
	C453.819946,826.078796 441.053497,825.381531 428.333069,824.254700 
	C410.196564,822.648254 392.052887,821.106750 373.967163,818.827087 
	C361.459930,817.250671 349.117188,814.785583 336.648865,813.033142 
	C325.513672,811.468018 314.553925,808.614502 303.545258,806.199524 
	C289.173706,803.046814 275.000397,799.047485 261.140656,794.195190 
	C242.120071,787.535950 223.124207,780.587891 205.596069,770.473755 
	C183.170944,757.533875 162.732986,742.017273 146.069931,721.949829 
	C127.111397,699.117920 113.824158,673.566650 106.176598,644.675110 
	C100.702820,623.995850 98.833504,603.092407 99.142487,582.083252 
	C99.380287,565.915283 102.426880,549.792969 106.208443,533.921997 
	C109.647179,519.489807 114.251022,505.406006 120.039749,491.852509 
	C129.777313,469.053314 140.798233,446.825531 157.283203,427.907532 
	C160.088593,424.688049 160.832581,421.773529 159.599640,417.577637 
	C156.624863,407.454224 158.570923,397.182159 159.862167,387.033386 
	C161.873444,371.225433 164.781189,355.529510 169.014694,340.187408 
	C173.072464,325.482178 177.267532,310.789795 182.594299,296.443665 
	C187.515137,283.190735 192.311218,269.889099 198.982193,257.407593 
	C207.375946,241.702728 216.880569,226.821976 229.246109,213.725693 
	C245.477463,196.535065 269.683075,198.284653 286.647095,210.970184 
	C303.499756,223.572495 314.941071,240.196930 325.815857,257.626678 
	C338.935638,278.654724 352.536285,299.382172 365.834167,320.299866 
	C371.185547,328.717590 376.381744,337.238281 381.454651,345.826630 
	C383.579559,349.423981 386.123779,350.468231 390.144135,349.196625 
	C408.908630,343.261444 428.251038,339.884674 447.747681,337.966736 
	C469.090851,335.867157 490.560394,335.425934 512.030396,335.413544 
	C536.492859,335.399384 560.920776,336.370605 585.315674,337.873047 
	C594.218811,338.421387 603.110901,339.737946 612.019226,340.612122 
	C615.276367,340.931732 616.529968,339.895020 617.886780,337.627411 
	C625.065125,325.630951 632.298279,313.681427 640.240479,302.151184 
	C657.047485,277.751312 675.131409,254.398865 694.517700,231.967865 
	C707.645752,216.778091 723.271240,204.416550 737.889526,190.924133 
	C748.640076,181.001511 762.002197,175.608093 776.247253,172.841232 
	C783.949768,171.345169 790.583374,175.304810 796.621399,179.394531 
	C812.159119,189.918655 821.022827,205.459976 827.234070,222.593475 
	C833.310364,239.354599 835.497620,257.094910 839.487183,274.384125 
	C845.694519,301.283752 845.509460,328.478333 845.326050,355.735229 
	C845.224121,370.882568 843.574829,385.954315 841.673584,400.948029 
	C840.634888,409.139893 842.597595,414.859863 848.810364,420.640106 
	C859.865662,430.925781 869.262512,442.787903 877.130249,455.830719 
	C890.915833,478.683990 898.702026,503.545105 902.246338,529.794373 
	C904.688660,547.882629 907.452698,566.012207 906.181091,584.357666 
	C904.384827,610.272095 900.882629,635.841492 892.154236,660.565979 
	C886.293213,677.168579 877.977722,692.399963 868.847290,707.713623 
M806.513916,408.896667 
	C807.584961,395.650757 808.406006,382.378723 809.785156,369.164948 
	C811.910950,348.796509 811.935852,328.424133 810.022827,308.089081 
	C808.144714,288.124878 805.495972,268.243134 799.653320,248.947784 
	C795.734009,236.004379 791.229248,223.341660 782.741028,212.514160 
	C781.362854,210.756119 779.951233,208.673843 777.485840,209.751694 
	C769.441711,213.268494 760.467041,215.725876 753.773071,221.021271 
	C742.622986,229.841736 732.315674,239.965317 722.806641,250.573853 
	C701.598389,274.234222 681.893677,299.145111 664.919617,326.085907 
	C657.390015,338.036743 649.048096,349.532623 643.680298,362.741211 
	C639.656616,372.642395 630.189453,377.957672 619.425964,376.424072 
	C614.171265,375.675385 608.903564,375.011902 603.632935,374.383179 
	C578.255432,371.355988 552.724060,370.487091 527.225403,369.573334 
	C512.454712,369.043945 497.637604,369.248230 482.808746,370.007263 
	C458.056549,371.274200 433.530273,373.898926 409.436737,379.607330 
	C402.137512,381.336670 394.584015,382.567322 387.758240,386.505707 
	C384.234161,388.539062 380.410583,390.904114 375.672760,390.582306 
	C367.534454,390.029510 362.887939,385.510498 359.369629,378.599762 
	C353.414520,366.902740 347.547577,355.095856 340.621368,343.971649 
	C325.764496,320.109955 311.309479,295.981934 295.342651,272.821686 
	C288.066772,262.267883 280.984802,251.551987 272.092010,242.256470 
	C265.216400,235.069519 254.861069,235.913177 249.179291,243.525131 
	C231.777618,266.838409 220.119720,293.046509 210.361237,320.202332 
	C201.860306,343.858582 194.565323,367.846741 192.571793,393.084717 
	C192.086960,399.222626 191.208145,405.231506 196.611572,410.625031 
	C204.121552,418.121185 201.393539,429.878845 195.191711,435.898743 
	C183.229782,447.509766 174.095535,461.068115 165.610245,475.240753 
	C150.228516,500.932220 139.914902,528.608643 134.887451,557.972473 
	C130.803391,581.826294 130.891083,605.839050 136.086502,629.825745 
	C141.397278,654.345032 151.228470,676.713806 166.558350,696.299500 
	C184.773636,719.571655 208.187424,736.713806 235.005875,749.008545 
	C262.580414,761.649902 291.549042,770.031189 321.142883,776.483398 
	C346.121094,781.929260 371.395721,785.545410 396.739807,788.407288 
	C420.596985,791.101318 444.550018,793.220520 468.601471,793.693420 
	C490.654480,794.127014 512.692383,795.476257 534.764526,794.665710 
	C555.017700,793.921875 575.276428,793.312500 595.523804,792.436218 
	C602.140503,792.149841 608.763855,791.457153 615.323914,790.525879 
	C636.819885,787.474731 658.334534,784.789246 679.641418,780.223755 
	C705.933472,774.589905 731.290955,766.501404 755.878174,755.852600 
	C771.432983,749.115662 786.137329,740.859131 799.865540,730.772522 
	C823.077026,713.718140 841.782104,692.883179 854.506348,666.982300 
	C862.912354,649.871399 867.998657,631.693604 870.790466,612.814575 
	C873.064514,597.436340 873.396423,581.950073 873.128113,566.515686 
	C872.865662,551.426270 870.495728,536.503418 866.792175,521.756226 
	C862.708801,505.496063 856.849426,490.022949 848.602905,475.501831 
	C839.792786,459.988312 828.133423,446.602112 815.647339,433.998383 
	C808.840515,427.127380 805.880310,419.198914 806.513916,408.896667 
z"/>
<path fill="#000000" opacity="1.000000" stroke="none" 
	d="
M492.082306,701.098328 
	C479.845398,709.869934 467.023590,715.725647 451.940918,716.599121 
	C439.850189,717.299316 428.225800,716.304565 417.794922,710.119568 
	C403.911682,701.887573 396.568542,689.414612 396.558502,673.020142 
	C396.554443,666.378357 396.935425,659.793030 398.605865,653.282471 
	C400.493042,645.927124 414.024414,633.531799 421.507202,632.732849 
	C427.518250,632.091064 435.090881,636.295715 438.014740,641.898499 
	C440.795319,647.226746 439.786591,655.727234 435.839691,660.227905 
	C430.766266,666.013123 429.717194,672.863220 433.088074,678.195068 
	C436.021057,682.834229 443.709747,685.005798 450.625885,683.239502 
	C457.752869,681.419434 462.995850,676.184937 469.378448,672.981445 
	C478.633087,668.336609 484.682312,659.882507 491.887970,652.817078 
	C495.335724,649.436462 498.710541,646.023193 504.006897,645.573120 
	C517.103333,644.459900 522.021484,652.146729 524.127930,661.911255 
	C527.358032,676.884888 541.478394,684.505493 554.852905,680.185425 
	C566.624756,676.382935 575.720459,669.525085 583.943420,660.827759 
	C588.697693,655.799255 594.605225,652.230652 601.588196,653.273621 
	C615.789978,655.394714 620.870239,669.793579 611.552673,681.269592 
	C598.559509,697.272705 582.533875,709.826355 562.249634,713.988159 
	C543.376099,717.860352 524.436035,716.442261 508.964081,702.153076 
	C506.382935,699.769287 504.320984,696.994934 502.250671,694.152100 
	C498.117157,695.327759 496.027527,699.275024 492.082306,701.098328 
z"/>
<path fill="#000000" opacity="1.000000" stroke="none" 
	d="
M628.053162,496.655457 
	C641.012817,491.073456 654.575867,497.476654 659.389099,511.268921 
	C664.362732,525.521179 663.181824,539.160461 654.113403,551.506836 
	C645.107117,563.768616 623.440674,564.323364 615.852112,548.318665 
	C607.837830,531.416321 609.494202,508.592438 628.053162,496.655457 
z"/>
<path fill="#000000" opacity="1.000000" stroke="none" 
	d="
M332.905518,566.487366 
	C324.275360,562.817749 319.961334,555.990845 318.518494,547.654114 
	C315.805725,531.979126 319.042084,516.485718 331.552399,507.871368 
	C339.487183,502.407654 350.992249,503.349121 357.796021,510.312042 
	C366.112885,518.823486 368.342987,529.167908 367.066650,540.615906 
	C366.174438,548.618469 363.199646,555.734741 357.457581,561.373169 
	C350.602844,568.104126 342.489838,570.180359 332.905518,566.487366 
z"/>
</svg>